<svg id="visual" viewBox="0 0 960 200" width="960" height="200" xmlns="http://www.w3.org/2000/svg" xmlns:xlink="http://www.w3.org/1999/xlink" version="1.1"><path d="M0 129L22.8 127C45.7 125 91.3 121 137 121.8C182.7 122.7 228.3 128.3 274 128.8C319.7 129.3 365.3 124.7 411.2 123.2C457 121.7 503 123.3 548.8 122.7C594.7 122 640.3 119 686 118.8C731.7 118.7 777.3 121.3 823 122.2C868.7 123 914.3 122 937.2 121.5L960 121L960 201L937.2 201C914.3 201 868.7 201 823 201C777.3 201 731.7 201 686 201C640.3 201 594.7 201 548.8 201C503 201 457 201 411.2 201C365.3 201 319.7 201 274 201C228.3 201 182.7 201 137 201C91.3 201 45.7 201 22.8 201L0 201Z" fill="#f4e1d2"></path><path d="M0 147L22.8 144.8C45.7 142.7 91.3 138.3 137 139.2C182.7 140 228.3 146 274 149.7C319.7 153.3 365.3 154.7 411.2 154.3C457 154 503 152 548.8 150.5C594.7 149 640.3 148 686 145.8C731.7 143.7 777.3 140.3 823 141.8C868.7 143.3 914.3 149.7 937.2 152.8L960 156L960 201L937.2 201C914.3 201 868.7 201 823 201C777.3 201 731.7 201 686 201C640.3 201 594.7 201 548.8 201C503 201 457 201 411.2 201C365.3 201 319.7 201 274 201C228.3 201 182.7 201 137 201C91.3 201 45.7 201 22.8 201L0 201Z" fill="#ecb9a2"></path><path d="M0 152L22.8 153.8C45.7 155.7 91.3 159.3 137 161.7C182.7 164 228.3 165 274 164.7C319.7 164.3 365.3 162.7 411.2 162.5C457 162.3 503 163.7 548.8 161.3C594.7 159 640.3 153 686 153.3C731.7 153.7 777.3 160.3 823 162.3C868.7 164.3 914.3 161.7 937.2 160.3L960 159L960 201L937.2 201C914.3 201 868.7 201 823 201C777.3 201 731.7 201 686 201C640.3 201 594.7 201 548.8 201C503 201 457 201 411.2 201C365.3 201 319.7 201 274 201C228.3 201 182.7 201 137 201C91.3 201 45.7 201 22.8 201L0 201Z" fill="#e48e80"></path><path d="M0 162L22.8 164.7C45.7 167.3 91.3 172.7 137 172.7C182.7 172.7 228.3 167.3 274 167.7C319.7 168 365.3 174 411.2 173.7C457 173.3 503 166.7 548.8 164.7C594.7 162.7 640.3 165.3 686 166.2C731.7 167 777.3 166 823 167.3C868.7 168.7 914.3 172.3 937.2 174.2L960 176L960 201L937.2 201C914.3 201 868.7 201 823 201C777.3 201 731.7 201 686 201C640.3 201 594.7 201 548.8 201C503 201 457 201 411.2 201C365.3 201 319.7 201 274 201C228.3 201 182.7 201 137 201C91.3 201 45.7 201 22.8 201L0 201Z" fill="#d95f6d"></path><path d="M0 189L22.8 187.5C45.7 186 91.3 183 137 183C182.7 183 228.3 186 274 185.5C319.7 185 365.3 181 411.2 178.8C457 176.7 503 176.3 548.8 177.5C594.7 178.7 640.3 181.3 686 181.3C731.7 181.3 777.3 178.7 823 179.3C868.7 180 914.3 184 937.2 186L960 188L960 201L937.2 201C914.3 201 868.7 201 823 201C777.3 201 731.7 201 686 201C640.3 201 594.7 201 548.8 201C503 201 457 201 411.2 201C365.3 201 319.7 201 274 201C228.3 201 182.7 201 137 201C91.3 201 45.7 201 22.8 201L0 201Z" fill="#c62368"></path></svg>